<svg width="20" height="19" viewBox="0 0 20 19" fill="none" xmlns="http://www.w3.org/2000/svg">
<path d="M10 0.499512C14.982 0.499512 19 4.51751 19 9.49951C19 14.4815 14.982 18.4995 10 18.4995" stroke="#F2F5FC" stroke-linecap="round" stroke-linejoin="round"/>
<path d="M10 18.4995C5.018 18.4995 1 14.4815 1 9.49951C1 4.51751 5.018 0.499512 10 0.499512" stroke="#F2F5FC" stroke-linecap="round" stroke-linejoin="round"/>
<path fill-rule="evenodd" clip-rule="evenodd" d="M8.1675 1.55975C5.2775 6.38475 5.2775 12.6158 8.1675 17.4408C9.0135 18.8538 10.9865 18.8538 11.8325 17.4408C14.7225 12.6158 14.7225 6.38475 11.8325 1.55975C10.9855 0.14675 9.0135 0.14675 8.1675 1.55975Z" stroke="#F2F5FC" stroke-linecap="round" stroke-linejoin="round"/>
<path d="M2.00977 5.35742C6.90177 6.86842 13.0978 6.86842 17.9888 5.35742" stroke="#F2F5FC" stroke-linecap="round" stroke-linejoin="round"/>
<path d="M17.9907 13.6416C13.0987 12.1306 6.90272 12.1306 2.01172 13.6416" stroke="#F2F5FC" stroke-linecap="round" stroke-linejoin="round"/>
</svg>
